<svg enable-background="new 0 0 2048 2048" viewBox="0 0 2048 2048" xmlns="http://www.w3.org/2000/svg" xmlns:xlink="http://www.w3.org/1999/xlink"><linearGradient id="a" gradientUnits="userSpaceOnUse" x1="280.28" x2="1767.72" y1="1024" y2="1024"><stop offset="0" stop-color="#fedc52"/><stop offset=".9947" stop-color="#fcb117"/></linearGradient><radialGradient id="b" cx="1026.7593" cy="1311.7858" gradientUnits="userSpaceOnUse" r="352.3164"><stop offset=".00485437" stop-color="#fff"/><stop offset=".3282" stop-color="#f9f9f9"/><stop offset=".6117" stop-color="#ededed"/><stop offset=".8793" stop-color="#dcdddd"/><stop offset="1" stop-color="#d2d3d4"/></radialGradient><circle cx="1024" cy="1024" fill="url(#a)" r="743.72"/><path d="m540.23 770.15c-2.07 0-4.16-.21-6.27-.66-16.21-3.44-26.55-19.38-23.11-35.58 21.98-103.42 83.1-188.9 176.75-247.22 76.03-47.35 171.5-74.41 262.28-74.41.78 0 1.54 0 2.31.01 16.57.08 29.93 13.58 29.85 30.15-.08 16.52-13.5 29.85-30 29.85-.05 0-.1 0-.16 0-.58 0-1.18 0-1.77 0-130.25 0-337.77 72.7-380.58 274.11-2.98 14.09-15.44 23.75-29.3 23.75z" fill="#fff" opacity=".81"/><path d="m1476.14 1126.98c-488.34-68.11-898.76 0-898.76 0s-1.71 44.41 12.98 103.75c30.26 118.18 128.88 296.12 436.4 296.12 305.78 0 404.95-175.53 435.79-293.67 15.35-60.56 13.59-106.2 13.59-106.2z" fill="url(#b)" stroke="#542a19" stroke-miterlimit="10" stroke-width="8"/><g fill="#542a19"><path d="m1204.44 856.56c11-27.39 31.5-56.01 63.63-57.2 32.39-1.21 53.54 33.17 63.63 59.23 10.11 26.25 52.79 14.85 42.52-11.73-18.29-47.37-51.74-89.59-106.15-91.62-52.9-1.97-88.62 45.89-106.15 89.59-10.64 26.42 32.07 37.8 42.52 11.73z"/><path d="m716.42 856.56c11-27.39 31.49-56.01 63.62-57.2 32.39-1.21 53.55 33.17 63.63 59.23 10.13 26.25 52.78 14.85 42.52-11.73-18.28-47.37-51.74-89.59-106.15-91.62-52.9-1.97-88.6 45.89-106.15 89.59-10.63 26.42 32.06 37.8 42.53 11.73z"/></g></svg>