<svg enable-background="new 0 0 128 128" viewBox="0 0 128 128" xmlns="http://www.w3.org/2000/svg" xmlns:xlink="http://www.w3.org/1999/xlink"><linearGradient id="a" gradientUnits="userSpaceOnUse" x1="63.9026" x2="63.9026" y1="8.5417" y2="107.2432"><stop offset="0" stop-color="#ff4d4a"/><stop offset=".9693" stop-color="#e53935"/></linearGradient><path d="m100 9.8c-19.84-7.26-36 13.85-36 13.85s-15.47-20.15-35.64-13.9c-31.61 9.8-28.78 48.95-13.22 69.07 14.89 19.25 45.86 38.79 48.86 40.75v.12c0 .02.01.03.01.03s.02-.03.06-.06c.04.03-.02.06-.02.06s-.05-.01-.05-.03v-.12c3-1.96 33.87-23.01 48.75-42.26 15.56-20.13 18-56.26-12.75-67.51z" fill="url(#a)"/></svg>