<svg viewBox="0 0 64 64" xmlns="http://www.w3.org/2000/svg"><path d="m63 51v12l-22.64-10.83.64-.17 5-5z" fill="#f2b59d"/><path d="m4 43.87a4.078 4.078 0 0 1 -1.83-1.04 4.025 4.025 0 0 1 -1.17-2.83 3 3 0 0 1 3-3h4l.03-.04 4.53 3.47a2.8 2.8 0 0 0 3.64-.22 2.714 2.714 0 0 0 .8-1.92v-.47a2 2 0 0 0 -1-1.82l-3.99-3.15.03-.04 7.15 5.56a2.975 2.975 0 0 0 4.81-2.35v-.53a2.956 2.956 0 0 0 -1.15-2.35l1.15.86a4.022 4.022 0 0 0 2.02 1 2.97 2.97 0 0 0 2.98-2.98v-.53a2.965 2.965 0 0 0 -1.19-2.38l-2.81-2.11h1v-1a2.006 2.006 0 0 0 -2-2h-8.53a2.469 2.469 0 0 1 -1.1-4.68l2.75-.96 3.88-1.36 3 .33 6 .67 3.84 3.2 14.16 11.8h15v18l-17-4-5 5-.64.17-17.97 4.73a3.056 3.056 0 0 1 -.79.1h-2.3a3.142 3.142 0 0 1 -2.22-.92l-2.08-2.08h-1.29a4.015 4.015 0 0 1 -3.72-2.51l-.99-2.49h-.97a2.986 2.986 0 0 1 -2.78-1.89l-1.25-3.11z" fill="#f2c4b2"/><path d="m33 16 1 5-.16.2-3.84-3.2-6-.67v-2.95a3.373 3.373 0 0 1 6.01-2.11z" fill="#f2b59d"/><path d="m26 26v1h-1l-3.28-2.46a2.7 2.7 0 0 0 -1.62-.54h3.9a2.006 2.006 0 0 1 2 2z" fill="#ed9776"/><path d="m27.81 29.11-2.81-2.11-3.28-2.46a2.7 2.7 0 0 0 -1.62-.54h-1.41a2.684 2.684 0 0 0 -2.69 2.69 2.887 2.887 0 0 0 .8 1.91l-.08-.06a2.7 2.7 0 0 0 -1.62-.54h-1.41a2.687 2.687 0 0 0 -1.65 4.81l7.15 5.56a2.975 2.975 0 0 0 4.81-2.35v-.53a2.956 2.956 0 0 0 -1.15-2.35l1.15.86a4.022 4.022 0 0 0 2.02 1 2.97 2.97 0 0 0 2.98-2.98v-.53a2.965 2.965 0 0 0 -1.19-2.38z" fill="#f2b59d"/><path d="m18 1v8h-1-7-1v-2h-8v-6z" fill="#d4d4d4"/><g fill="#f2b59d"><path d="m17 37.82v.47a2.714 2.714 0 0 1 -.8 1.92 2.8 2.8 0 0 1 -3.64.22l-4.53-3.47-2.08-1.6a2.429 2.429 0 0 1 -.89-1.37 2.505 2.505 0 0 1 -.06-.55 2.458 2.458 0 0 1 2.48-2.44h1.31a2.487 2.487 0 0 1 1.49.49l1.73 1.36 3.99 3.15a2 2 0 0 1 1 1.82z"/><path d="m29.81 32.11-.81-.61v.518a2.97 2.97 0 0 1 -2.98 2.982 4.022 4.022 0 0 1 -2.02-1l-1.15-.86a2.956 2.956 0 0 1 1.15 2.35v.01l.81.607-.81-.6v.514a2.978 2.978 0 0 1 -4.81 2.35l-6.18-4.806c0 .024 0 .047-.006.071l2.996 2.364a2 2 0 0 1 1 1.82v.292l4.19 3.258a2.975 2.975 0 0 0 4.81-2.35v-.53a2.956 2.956 0 0 0 -1.15-2.35l1.15.86a4.022 4.022 0 0 0 2.02 1 2.97 2.97 0 0 0 2.98-2.98v-.53a2.965 2.965 0 0 0 -1.19-2.38z"/><path d="m18 39-1-.789v.079a2.714 2.714 0 0 1 -.8 1.92 2.8 2.8 0 0 1 -3.64.22l-4.53-3.47-.03.04h-.937a2.432 2.432 0 0 0 .887 1.36l2.08 1.6 4.53 3.47a2.8 2.8 0 0 0 3.64-.22 2.714 2.714 0 0 0 .8-1.92v-.47a2 2 0 0 0 -1-1.82z"/></g><path d="m13 60.75c0 1.66-.9 2.25-2 2.25s-2-.59-2-2.25 2-3.75 2-3.75 2 2.09 2 3.75z" fill="#96e0ff"/><path d="m10 59.75a5.1 5.1 0 0 1 1.1-2.638l-.1-.112s-2 2.09-2 3.75.9 2.25 2 2.25a1.786 1.786 0 0 0 1.812-1.134 2.385 2.385 0 0 1 -.812.134c-1.1 0-2-.59-2-2.25z" fill="#81d2f5"/><path d="m8.03 36.96-.03.04h-4a3 3 0 0 0 -3 3v-2a4 4 0 0 1 4-4l.06-.01a2.429 2.429 0 0 0 .89 1.37z" fill="#ed9776"/><path d="m8 56a2.7 2.7 0 0 1 -3 3 2.7 2.7 0 0 1 -3-3c0-2.21 3-5 3-5s3 2.79 3 5z" fill="#96e0ff"/><path d="m3 54a3.114 3.114 0 0 1 .118-.8 5.382 5.382 0 0 0 -1.118 2.8 2.7 2.7 0 0 0 3 3 2.651 2.651 0 0 0 2.965-2.563 3.277 3.277 0 0 1 -1.965.563 2.7 2.7 0 0 1 -3-3z" fill="#81d2f5"/><path d="m25.243 54.189a1 1 0 0 0 .757-.97v-1.219l-8.66 1.87a1.851 1.851 0 0 1 -.7.13h-1.64l1.667 1.667 1.333.333z" fill="#f2b59d"/><path d="m22.358 49.3a2 2 0 0 0 1.642-1.969v-.331l-11 2h-4l.8 2h3.2z" fill="#f2b59d"/><path d="m19.027 44.329a2.361 2.361 0 0 0 1.973-2.329l-13 2h-3a3.657 3.657 0 0 1 -1-.13v.13l.8 2h4.2z" fill="#f2b59d"/><path d="m49.564 50.754 13.436 3.952v-3.706l-17-4-5 5-.64.17 6.64 3.176v-2.673a2 2 0 0 1 2.564-1.919z" fill="#ed9776"/><path d="m26.414 32.89-7.574-5.3a1.971 1.971 0 0 1 -.84-1.616 1.97 1.97 0 0 1 1.97-1.974h-1.28a2.684 2.684 0 0 0 -2.69 2.69 2.887 2.887 0 0 0 .8 1.91l.01.01 6 4.5c.01.01.03.02.04.03l1.15.86a4.022 4.022 0 0 0 2.02 1 2.943 2.943 0 0 0 2.886-2.27 2 2 0 0 1 -2.492.16z" fill="#f2a283"/><path d="m14.414 38.89-7.574-5.3a1.971 1.971 0 0 1 -.84-1.616 1.952 1.952 0 0 1 .087-.549 2.425 2.425 0 0 0 -1.087 2.015 2.505 2.505 0 0 0 .06.55 2.429 2.429 0 0 0 .89 1.37l2.08 1.6 4.53 3.47a2.8 2.8 0 0 0 3.64-.22 2.72 2.72 0 0 0 .761-1.54 2 2 0 0 1 -2.547.22z" fill="#f2a283"/><path d="m21.414 36.89-8.574-6.3a1.971 1.971 0 0 1 -.84-1.616 1.966 1.966 0 0 1 .039-.386 2.661 2.661 0 0 0 -.579.6 2.691 2.691 0 0 0 .58 3.63l7.15 5.56a2.96 2.96 0 0 0 4.716-1.64 2 2 0 0 1 -2.492.152z" fill="#f2a283"/><path d="m63 33h-4v7.838a3 3 0 0 1 -3.949 2.846l-2.28-.76a5.2 5.2 0 0 0 -6.771 4.076l17 4z" fill="#f2b59d"/><path d="m24 22h-9a2 2 0 0 1 -1.855-1.262 2.416 2.416 0 0 0 -.145.792 2.475 2.475 0 0 0 2.47 2.47h8.53a2.006 2.006 0 0 1 2 2v-2a2 2 0 0 0 -2-2z" fill="#f2b59d"/><path d="m18.69 24h-1.69v.61a2.665 2.665 0 0 1 1.69-.61z" fill="#81d2f5"/><path d="m12.01 32.85.03-.04a2.686 2.686 0 0 1 1.65-4.81h1.41a2.7 2.7 0 0 1 1.62.54l.08.06a2.887 2.887 0 0 1 -.8-1.91 2.671 2.671 0 0 1 1-2.08v-.61h-1.53a2.469 2.469 0 0 1 -1.1-4.68l2.63-.92v-9.4h-7v22.315a2.469 2.469 0 0 1 .28.175z" fill="#96e0ff"/><path d="m3 1v2a2 2 0 0 0 2 2h4v2h-8v-6z" fill="#bfbfbf"/><path d="m9 8h9v1h-9z" fill="#bfbfbf"/><path d="m14 11h3v-2h-7v22.315a2.469 2.469 0 0 1 .28.175l1.73 1.36.03-.04a2.644 2.644 0 0 1 -.04-4.2v-15.61a2 2 0 0 1 2-2z" fill="#81d2f5"/><rect fill="#b3f5ff" height="6" rx="1" width="2" x="14" y="12"/><rect fill="#b3f5ff" height="3" rx="1" width="2" x="14" y="24"/><rect fill="#b3f5ff" height="3" rx="1" width="2" x="12" y="17"/><path d="m6.3 55.991c.357.082.555-.429.541-.755a1.186 1.186 0 0 0 -.641-1.107 1.421 1.421 0 0 0 -.9-.1.665.665 0 0 0 -.345.154.388.388 0 0 0 -.107.384.537.537 0 0 0 .139.193l1.019 1.031a.637.637 0 0 0 .294.2z" fill="#fff"/><path d="m12.066 61.5c.178.041.277-.215.271-.378a.594.594 0 0 0 -.317-.553.716.716 0 0 0 -.449-.05.333.333 0 0 0 -.172.077.193.193 0 0 0 -.054.192.26.26 0 0 0 .07.1l.509.515a.32.32 0 0 0 .142.097z" fill="#fff"/></svg>